<!--?xml version="1.0" encoding="utf-8"?-->
<!-- Generator: Adobe Illustrator 18.1.1, SVG Export Plug-In . SVG Version: 6.00 Build 0)  -->

<svg version="1.1" id="_x32_" xmlns="http://www.w3.org/2000/svg" xmlns:xlink="http://www.w3.org/1999/xlink" x="0px" y="0px" viewBox="0 0 512 512" style="width: 256px; height: 256px; opacity: 1;" xml:space="preserve">
<style type="text/css">
	.st0{fill:#4B4B4B;}
</style>
<g>
	<path class="st0" d="M507.955,129.803c-2.971-3.302-7.224-5.183-11.644-5.183H169.62c-8.658,0-15.694,7.017-15.694,15.69
		c0,8.681,7.036,15.69,15.694,15.69h309.309L465.11,290.762l-259.564,57.275L112.388,41.507c-1.576-5.165-5.72-9.181-10.94-10.592
		L19.778,8.923c-8.366-2.238-16.982,2.719-19.235,11.08c-2.253,8.372,2.708,16.988,11.08,19.236h-0.005l73.27,19.725l94.843,312.098
		c2.384,7.826,10.404,12.51,18.398,10.742l284.806-62.824c6.622-1.476,11.541-6.989,12.237-13.743l16.743-163.329
		C512.376,137.507,510.928,133.076,507.955,129.803z" style="fill: rgb(75, 75, 75);"></path>
	<path class="st0" d="M238.732,401.03c-28.341,0.01-51.274,22.97-51.292,51.302c0.005,28.332,22.966,51.282,51.292,51.282
		c28.327,0,51.282-22.951,51.287-51.282C290.004,424,267.073,401.04,238.732,401.03z M238.732,472.236
		c-10.996-0.038-19.885-8.898-19.903-19.904c0.018-10.986,8.926-19.904,19.903-19.913c10.977,0.01,19.88,8.927,19.904,19.913
		C258.611,463.338,249.723,472.198,238.732,472.236z" style="fill: rgb(75, 75, 75);"></path>
	<path class="st0" d="M423.028,401.03c-28.351,0.01-51.283,22.97-51.297,51.302c0.005,28.332,22.969,51.282,51.297,51.282
		c28.331,0,51.273-22.951,51.282-51.282C474.291,424,451.368,401.04,423.028,401.03z M423.028,472.236
		c-11.006-0.038-19.895-8.898-19.913-19.904c0.018-10.986,8.936-19.904,19.913-19.913c10.976,0.01,19.866,8.927,19.894,19.913
		C442.894,463.338,434.024,472.198,423.028,472.236z" style="fill: rgb(75, 75, 75);"></path>
	<path class="st0" d="M254.426,295.268V186.381c0-5.211-4.214-9.416-9.421-9.416c-5.196,0-9.41,4.205-9.41,9.416v108.886
		c0,5.192,4.214,9.415,9.41,9.415C250.212,304.683,254.426,300.459,254.426,295.268z" style="fill: rgb(75, 75, 75);"></path>
	<path class="st0" d="M329.821,274.348v-87.967c0-5.211-4.214-9.416-9.415-9.416c-5.207,0-9.421,4.205-9.421,9.416v87.967
		c0,5.192,4.214,9.415,9.421,9.415C325.607,283.763,329.821,279.54,329.821,274.348z" style="fill: rgb(75, 75, 75);"></path>
	<path class="st0" d="M405.212,261.762v-75.381c0-5.211-4.224-9.416-9.416-9.416c-5.206,0-9.425,4.205-9.425,9.416v75.381
		c0,5.202,4.219,9.416,9.425,9.416C400.989,271.178,405.212,266.964,405.212,261.762z" style="fill: rgb(75, 75, 75);"></path>
</g>
</svg>
