<svg xmlns="http://www.w3.org/2000/svg" width="122.383" height="200" viewBox="0 0 122.383 200"><path d="M35.156,264.075a6.621,6.621,0,0,0-6.1,1.638c-2.4,2.1-3.228,4.695-3.984,7.149a61.294,61.294,0,0,0-1.791,8.083c-.988,5.988-1.727,13.418-2.328,22.03-1.2,17.223-1.782,39.06-1.782,60.944s.58,43.735,1.782,60.958c.6,8.612,1.34,16.042,2.328,22.03a61.094,61.094,0,0,0,1.791,8.07c.756,2.454,1.58,5.063,3.984,7.163a6.62,6.62,0,0,0,6.1,1.638,20.85,20.85,0,0,0,5.516-1.693,91.05,91.05,0,0,0,13.78-7.962c10.465-7.038,23.274-17.194,35.807-28.137a430.876,430.876,0,0,0,34.016-32.821,135.06,135.06,0,0,0,11.443-14.055,43.861,43.861,0,0,0,3.734-6.391,19.429,19.429,0,0,0,0-17.589,43.857,43.857,0,0,0-3.734-6.391,135.1,135.1,0,0,0-11.443-14.068,430.88,430.88,0,0,0-34.016-32.808c-12.533-10.942-25.342-21.112-35.807-28.15a90.841,90.841,0,0,0-13.78-7.948A20.847,20.847,0,0,0,35.156,264.075Zm.038,17.7a12.893,12.893,0,0,1,2.31.745,84.785,84.785,0,0,1,12.267,7.136,376.191,376.191,0,0,1,34.723,27.3,421.9,421.9,0,0,1,33,31.82,125.348,125.348,0,0,1,10.216,12.511,27.018,27.018,0,0,1,1.585,2.64,26.947,26.947,0,0,1-1.585,2.654,125.423,125.423,0,0,1-10.216,12.5,421.91,421.91,0,0,1-33,31.82C72.232,421.6,59.654,431.555,49.77,438.2A84.788,84.788,0,0,1,37.5,445.338a13.051,13.051,0,0,1-2.31.745c-.232-.956-.463-1.807-.725-3.4-.764-4.63-1.483-11.5-2.05-19.633-1.135-16.268-1.719-37.72-1.719-59.13s.584-42.849,1.719-59.117c.567-8.134,1.286-15,2.05-19.633.263-1.592.493-2.443.725-3.4Z" transform="translate(-19.173 -263.927)"/></svg>