<?xml version="1.0" encoding="UTF-8"?>
<svg id="_レイヤー_2" data-name="レイヤー 2" xmlns="http://www.w3.org/2000/svg" viewBox="0 0 182.9 305.35">
  <defs>
    <style>
      .cls-1 {
        fill: #231815;
      }

      .cls-1, .cls-2 {
        stroke-width: 0px;
      }

      .cls-2 {
        fill: #fff;
      }
    </style>
  </defs>
  <g id="_レイヤー_1-2" data-name="レイヤー 1">
    <g>
      <path class="cls-2" d="m152.57,303.85c-7.08,0-13.74-2.76-18.75-7.76L9.28,171.46c-10.38-10.38-10.38-27.27,0-37.65L133.82,9.27c5.01-5.01,11.67-7.77,18.75-7.77,4.81,0,9.5,1.29,13.57,3.73,6.27,2.27,11.26,7.14,13.7,13.39,3.35,8.57,1.16,18.47-5.58,25.21l-94.44,94.44c-3.85,3.85-5.97,8.97-5.97,14.41s2.12,10.56,5.97,14.41l91.49,91.49c5.01,5.01,7.77,11.67,7.77,18.75,0,8.79-4.19,16.76-11.49,21.87-3.01,2.11-6.51,3.56-10.13,4.21-1.62.29-3.27.44-4.89.44Z"/>
      <path class="cls-1" d="m152.57,3c4.63,0,9.07,1.25,12.93,3.59,5.82,2.06,10.6,6.56,12.95,12.57,3.18,8.14.94,17.42-5.24,23.6l-94.44,94.44c-8.55,8.55-8.55,22.4,0,30.95l91.49,91.49c4.72,4.72,7.33,11.01,7.33,17.69,0,8.19-3.91,15.79-10.85,20.64-2.85,1.99-6.12,3.35-9.54,3.96-1.55.28-3.1.41-4.63.41-6.68,0-12.96-2.6-17.69-7.33L10.34,170.4c-9.79-9.8-9.79-25.74,0-35.53L134.88,10.33c4.73-4.73,11.01-7.33,17.69-7.33m0-3c-7.48,0-14.52,2.91-19.81,8.21L8.23,132.74c-10.96,10.96-10.97,28.81,0,39.78l124.54,124.63c5.29,5.29,12.33,8.2,19.81,8.2,1.71,0,3.44-.15,5.15-.46,3.83-.68,7.54-2.22,10.73-4.46,7.71-5.4,12.13-13.82,12.13-23.1,0-7.48-2.91-14.52-8.21-19.81l-91.49-91.49c-7.36-7.36-7.36-19.34,0-26.71l94.44-94.44c7.16-7.16,9.48-17.69,5.91-26.82-2.58-6.61-7.84-11.77-14.45-14.2-4.28-2.53-9.19-3.86-14.22-3.86h0Z"/>
    </g>
  </g>
</svg>